<svg xmlns="http://www.w3.org/2000/svg" version="1.1" xmlns:xlink="http://www.w3.org/1999/xlink" xmlns:svgjs="http://svgjs.dev/svgjs" width="2000" height="1500" viewBox="0 0 2000 1500"><rect width="2000" height="1500" fill="#ffffff"></rect><g transform="matrix(0.75,0,0,0.75,249.090909090909,582.6004470715329)"><svg viewBox="0 0 396 88" data-background-color="#ffffff" preserveAspectRatio="xMidYMid meet" height="444" width="2000" xmlns="http://www.w3.org/2000/svg" xmlns:xlink="http://www.w3.org/1999/xlink"><g id="tight-bounds" transform="matrix(1,0,0,1,0.2400000000000091,0.23771969280812755)"><svg viewBox="0 0 395.52 87.52456061438373" height="87.52456061438373" width="395.52"><g><svg viewBox="0 0 680.2134412322207 150.5243289033375" height="87.52456061438373" width="395.52"><g><rect width="6.456807317677725" height="150.5243289033375" x="412.4226369572715" y="0" fill="#202046" opacity="1" stroke-width="0" stroke="transparent" fill-opacity="1" class="rect-qz-0" data-fill-palette-color="primary" rx="1%" id="qz-0" data-palette-color="#202046"></rect></g><g transform="matrix(1,0,0,1,0,12.543694075278125)"><svg viewBox="0 0 395.52 125.43694075278125" height="125.43694075278125" width="395.52"><g id="textblocktransform"><svg viewBox="0 0 395.52 125.43694075278125" height="125.43694075278125" width="395.52" id="textblock"><g><svg viewBox="0 0 395.52 71.59828596414516" height="71.59828596414516" width="395.52"><g transform="matrix(1,0,0,1,0,0)"><svg width="395.52" viewBox="3.8299999999999996 -38.75 223.32999999999998 40.43" height="71.59828596414516" data-palette-color="#202046"><path d="M4.27-0.37L3.86-9.08Q3.86-9.11 3.85-9.13 3.83-9.16 3.83-9.18L3.83-9.18Q3.83-9.59 4.27-9.59L4.27-9.59Q4.49-9.59 4.76-9.38L4.76-9.38Q6.08-8.13 7.69-7.4 9.3-6.67 11.21-6.67L11.21-6.67Q11.72-6.67 12.38-6.77 13.04-6.88 13.62-7.14 14.21-7.4 14.61-7.81 15.01-8.23 15.01-8.86L15.01-8.86Q15.01-9.57 14.67-10.13 14.33-10.69 13.77-11.08L13.77-11.08Q13.55-11.23 13.11-11.57 12.67-11.91 12.11-12.35 11.55-12.79 10.94-13.29 10.33-13.79 9.78-14.25 9.23-14.7 8.79-15.06 8.35-15.43 8.13-15.63L8.13-15.63Q6.69-16.7 5.85-17.8 5-18.9 4.57-20.09 4.13-21.29 4-22.57 3.88-23.85 3.88-25.29L3.88-25.29Q3.88-27.44 4.91-29.37 5.93-31.3 7.8-32.73 9.67-34.16 12.28-35 14.89-35.84 18.09-35.84L18.09-35.84Q18.48-35.84 19.26-35.75 20.04-35.67 20.98-35.47 21.92-35.28 22.9-34.94 23.88-34.59 24.68-34.06L24.68-34.06Q24.95-33.86 25.11-33.67 25.27-33.47 25.32-33.06L25.32-33.06Q25.44-31.08 25.51-29.16 25.59-27.25 25.71-25.1L25.71-25.1Q25.71-24.68 25.54-24.55 25.37-24.41 25.1-24.41L25.1-24.41Q24.83-24.41 24.68-24.56L24.68-24.56Q23.97-25.27 23.22-25.95 22.46-26.64 21.63-27.16 20.8-27.69 19.86-28 18.92-28.32 17.82-28.32L17.82-28.32Q17.16-28.32 16.5-28.21 15.84-28.1 15.31-27.81 14.77-27.51 14.44-27 14.11-26.49 14.11-25.71L14.11-25.71Q14.11-24.88 14.32-24.27 14.53-23.66 15.36-23.12L15.36-23.12 21.22-19.14Q22.83-17.99 23.83-16.86 24.83-15.72 25.39-14.6 25.95-13.48 26.16-12.39 26.37-11.3 26.37-10.25L26.37-10.25Q26.37-8.54 25.81-7.03 25.24-5.52 24.27-4.24 23.29-2.95 21.98-1.94 20.68-0.93 19.19-0.21 17.7 0.51 16.1 0.89 14.5 1.27 12.96 1.27L12.96 1.27Q11.77 1.27 10.61 1.23 9.45 1.2 8.35 1.04 7.25 0.88 6.23 0.55 5.2 0.22 4.27-0.37L4.27-0.37ZM29.37 0.37L32.15-35.5Q32.15-35.64 32.14-35.77 32.13-35.89 32.13-36.01L32.13-36.01Q32.13-36.23 32.3-36.39 32.47-36.55 33.13-36.72L33.13-36.72 39.99-38.35Q40.26-38.4 40.7-38.57 41.14-38.75 41.55-38.75L41.55-38.75Q42.4-38.75 42.4-37.96L42.4-37.96Q42.4-37.92 42.33-36.96 42.26-36.01 42.14-34.59 42.01-33.18 41.87-31.51 41.72-29.83 41.57-28.32 41.43-26.81 41.31-25.67 41.18-24.54 41.11-24.19L41.11-24.19Q42.26-24.83 43.5-25.39 44.75-25.95 46.01-26.37 47.26-26.78 48.52-27.01 49.78-27.25 50.95-27.25L50.95-27.25Q52.44-27.25 53.73-26.82 55.03-26.39 55.99-25.4 56.96-24.41 57.5-22.81 58.05-21.22 58.05-18.9L58.05-18.9Q58.05-18.31 58.03-17.69 58.01-17.07 57.93-16.41L57.93-16.41 56.88-6.42Q56.76-5.4 56.74-4.28 56.71-3.17 56.71-2L56.71-2Q56.71-1.81 56.72-1.67 56.74-1.54 56.74-1.44L56.74-1.44Q56.74-1.22 56.55-1.1 56.37-0.98 55.73-0.78L55.73-0.78 49.75 0.88Q49.48 0.95 49.05 1.11 48.61 1.27 48.19 1.27L48.19 1.27Q47.78 1.27 47.56 1.09 47.34 0.9 47.34 0.37L47.34 0.37Q47.51-1.46 47.62-2.59 47.73-3.71 47.79-4.38 47.85-5.05 47.9-5.41 47.95-5.76 47.97-6.04 48-6.32 48.04-6.68 48.09-7.03 48.15-7.71 48.22-8.4 48.33-9.52 48.44-10.64 48.61-12.48L48.61-12.48Q48.7-13.45 48.81-14.42 48.92-15.38 48.92-16.19L48.92-16.19Q48.92-17.21 48.81-18.05 48.7-18.9 48.42-19.49 48.14-20.09 47.65-20.43 47.17-20.78 46.41-20.78L46.41-20.78Q45.85-20.78 44.88-20.53 43.92-20.29 42.95-19.73 41.99-19.17 41.25-18.25 40.5-17.33 40.4-15.99L40.4-15.99Q40.21-14.11 40.1-12.92 39.99-11.72 39.91-10.94 39.84-10.16 39.8-9.69 39.77-9.23 39.74-8.84L39.74-8.84Q39.72-8.72 39.67-8.24 39.62-7.76 39.55-7.1 39.48-6.45 39.4-5.7 39.33-4.96 39.27-4.3 39.21-3.64 39.17-3.16 39.13-2.69 39.13-2.56L39.13-2.56Q39.13-2.37 39.15-2.23 39.16-2.1 39.16-1.98L39.16-1.98Q39.16-1.78 38.97-1.65 38.79-1.51 38.16-1.34L38.16-1.34 31.78 0.88Q31.52 0.98 31.08 1.12 30.64 1.27 30.22 1.27L30.22 1.27Q29.86 1.27 29.61 1.06 29.37 0.85 29.37 0.37L29.37 0.37ZM76.34-27.25L76.34-27.25Q78.66-27.25 80.55-26.38 82.44-25.51 83.8-24.13 85.15-22.75 85.88-21.04 86.62-19.34 86.62-17.63L86.62-17.63Q86.62-16.11 85.69-14.59 84.76-13.06 83.09-11.84 81.42-10.62 79.07-9.86 76.73-9.11 73.92-9.11L73.92-9.11Q72.46-9.11 70.84-9.4L70.84-9.4Q70.94-8.35 71.45-7.59 71.97-6.84 72.75-6.35 73.53-5.86 74.52-5.63 75.51-5.4 76.56-5.4L76.56-5.4Q77.73-5.4 78.82-5.6 79.9-5.81 80.9-6.15 81.9-6.49 82.83-6.91 83.76-7.32 84.59-7.74L84.59-7.74Q84.81-7.79 84.97-7.82 85.13-7.86 85.27-7.86L85.27-7.86Q85.27-7.86 85.26-7.47 85.25-7.08 85.25-6.37 85.25-5.66 85.24-4.66 85.22-3.66 85.2-2.44L85.2-2.44Q85.27-2.32 85.3-2.2 85.32-2.08 85.32-2L85.32-2Q85.32-1.71 84.79-1.37 84.25-1.03 83.38-0.66 82.51-0.29 81.4 0.05 80.29 0.39 79.15 0.67 78 0.95 76.92 1.11 75.85 1.27 75.04 1.27L75.04 1.27Q72.41 1.27 69.93 0.35 67.45-0.56 65.53-2.27 63.62-3.98 62.47-6.42 61.32-8.86 61.32-11.91L61.32-11.91Q61.32-15.11 62.42-17.91 63.52-20.7 65.51-22.78 67.5-24.85 70.26-26.05 73.02-27.25 76.34-27.25ZM76.04-20.75L76.04-20.75Q75.04-20.75 74.2-20.32 73.36-19.9 72.66-19.1 71.97-18.31 71.45-17.2 70.94-16.09 70.62-14.75L70.62-14.75Q73.14-15.19 74.8-15.67 76.46-16.16 77.46-16.66 78.46-17.16 78.88-17.66 79.29-18.16 79.29-18.63L79.29-18.63Q79.29-19.07 78.96-19.46 78.63-19.85 78.14-20.14 77.66-20.43 77.08-20.59 76.51-20.75 76.04-20.75ZM103.09 1.27L103.09 1.27Q99.65 1.27 97.05 0.15 94.45-0.98 92.69-2.84 90.93-4.71 90.06-7.14 89.18-9.57 89.18-12.18L89.18-12.18Q89.18-14.79 90.03-17.15 90.89-19.51 92.42-21.37 93.96-23.24 96.11-24.5 98.26-25.76 100.85-26.2L100.85-26.2Q101.24-26.22 101.24-26.37L101.24-26.37Q101.24-26.64 101.18-26.87 101.12-27.1 101.12-27.27L101.12-27.27Q101.12-27.54 101.21-27.64 101.31-27.73 101.43-27.73L101.43-27.73Q106.1-27.73 109.37-26.67 112.64-25.61 114.69-23.78 116.74-21.95 117.67-19.46 118.6-16.97 118.6-14.11L118.6-14.11Q118.6-10.47 117.38-7.62 116.15-4.76 114.04-2.78 111.93-0.81 109.11 0.23 106.29 1.27 103.09 1.27ZM98.58-12.45L98.58-12.45Q98.58-11.13 98.86-9.84 99.14-8.54 99.78-7.5 100.43-6.45 101.48-5.8 102.53-5.15 104.09-5.15L104.09-5.15Q105.22-5.2 106.06-5.65 106.9-6.1 107.51-6.82 108.12-7.54 108.53-8.45 108.93-9.35 109.16-10.31 109.39-11.28 109.49-12.21 109.59-13.13 109.59-13.89L109.59-13.89Q109.59-15.16 109.21-16.38 108.83-17.6 108.1-18.53 107.37-19.46 106.28-20.03 105.19-20.61 103.78-20.61L103.78-20.61Q102.31-20.61 101.31-19.74 100.31-18.87 99.71-17.6 99.11-16.33 98.85-14.93 98.58-13.53 98.58-12.45ZM134.07-34.94L134.07-34.94Q134.02-34.57 133.97-33.78 133.93-32.98 133.84-31.96 133.75-30.93 133.68-29.77 133.61-28.61 133.52-27.53 133.44-26.44 133.35-25.54 133.27-24.63 133.22-24.1L133.22-24.1 134.46-25.37 137.93-29.66Q138.56-30.47 139.2-31.24 139.83-32.01 140.33-32.63 140.83-33.25 141.15-33.67 141.47-34.08 141.52-34.13L141.52-34.13 152.36-35.03Q152.41-35.06 152.58-35.06L152.58-35.06 152.77-35.06Q153.33-35.06 153.33-34.77L153.33-34.77Q153.33-34.59 153.18-34.36 153.02-34.13 152.7-33.76L152.7-33.76Q152.31-33.3 151.56-32.43 150.82-31.57 149.94-30.53 149.06-29.49 148.12-28.38 147.18-27.27 146.38-26.33 145.57-25.39 145-24.71 144.42-24.02 144.28-23.83L144.28-23.83 142.74-22.36Q141.18-20.87 138.74-18.65L138.74-18.65Q139.49-17.87 140.36-16.96 141.23-16.04 142.02-15.2 142.81-14.36 143.46-13.67 144.11-12.99 144.42-12.65L144.42-12.65 151.97-3.91Q152.09-3.76 152.28-3.66 152.48-3.56 152.68-3.49 152.87-3.42 153.01-3.33 153.14-3.25 153.14-3.13L153.14-3.13Q153.14-2.98 152.82-2.66L152.82-2.66Q152.63-2.47 152.09-2.09 151.55-1.71 150.83-1.27 150.11-0.83 149.28-0.37 148.45 0.1 147.68 0.48 146.91 0.85 146.27 1.1 145.62 1.34 145.28 1.34L145.28 1.34Q144.77 1.34 144.2 0.89 143.64 0.44 142.86-0.48 142.08-1.39 141.01-2.81 139.93-4.22 138.42-6.13L138.42-6.13Q137.54-7.23 136.71-8.29 135.88-9.35 135.15-10.29 134.41-11.23 133.82-11.98 133.22-12.72 132.83-13.18L132.83-13.18Q132.63-12.99 132.41-12.81 132.19-12.62 132-12.43L132-12.43 131.14-1.95Q131.12-1.73 131.06-1.51 131-1.29 130.73-1.2L130.73-1.2 123.82 1.29Q123.55 1.39 123.11 1.54 122.67 1.68 122.26 1.68L122.26 1.68Q121.89 1.68 121.65 1.49 121.4 1.29 121.4 0.78L121.4 0.78Q121.52-0.66 121.71-2.95 121.89-5.25 122.1-8.19 122.3-11.13 122.54-14.61 122.77-18.09 123.04-21.92L123.04-21.92 123.72-32.2Q123.74-32.64 123.77-32.93 123.79-33.23 123.84-33.42 123.89-33.62 124.01-33.72 124.14-33.81 124.38-33.86L124.38-33.86 132.83-35.89Q133.14-35.99 133.49-35.99L133.49-35.99Q133.83-35.99 133.95-35.78 134.07-35.57 134.07-34.94ZM181.26-27.66L178.75-4.91Q178.72-4.81 178.72-4.72 178.72-4.64 178.72-4.57L178.72-4.57Q178.72-3.96 178.92-3.55 179.11-3.15 179.35-2.89 179.58-2.64 179.77-2.48 179.97-2.32 179.97-2.2L179.97-2.2Q179.97-1.86 179.24-1.56L179.24-1.56 172.67 1.25Q172.64 1.27 172.5 1.27L172.5 1.27Q172.3 1.27 172.11 0.93 171.91 0.59 171.73 0.06 171.55-0.46 171.39-1.06 171.23-1.66 171.11-2.17L171.11-2.17Q169.57-0.39 167.79 0.44 166 1.27 164.25 1.27L164.25 1.27Q162.19 1.27 160.24 0.37 158.29-0.54 156.77-2.21 155.26-3.88 154.35-6.25 153.43-8.62 153.43-11.57L153.43-11.57Q153.43-15.06 154.44-17.94 155.46-20.83 157.19-22.9 158.92-24.98 161.23-26.11 163.54-27.25 166.13-27.25L166.13-27.25Q167.96-27.25 169.59-26.5 171.23-25.76 172.69-24.58L172.69-24.58Q172.84-25.32 172.86-25.76 172.89-26.2 172.97-26.44 173.06-26.68 173.3-26.77 173.55-26.86 174.11-26.9L174.11-26.9Q175.87-27.15 177.61-27.36 179.36-27.56 181.26-27.66L181.26-27.66ZM170.42-6.88L171.45-14.11Q171.69-15.5 171.78-16.74 171.86-17.97 171.91-18.99L171.91-18.99Q171.52-19.29 171.07-19.6 170.62-19.92 170.09-20.2 169.57-20.48 168.99-20.65 168.42-20.83 167.79-20.83L167.79-20.83Q166.47-20.83 165.58-19.97 164.68-19.12 164.14-17.87 163.59-16.63 163.35-15.23 163.12-13.84 163.12-12.77L163.12-12.77Q163.12-8.91 164.14-7.12 165.15-5.32 166.96-5.32L166.96-5.32Q167.69-5.32 168.59-5.74 169.49-6.15 170.42-6.88L170.42-6.88ZM205.77-27.44L204.26-19.87Q203.74-19.92 203.11-19.98 202.48-20.04 201.77-20.04L201.77-20.04Q200.69-20.04 199.58-19.86 198.47-19.68 197.52-19.14 196.57-18.6 195.88-17.66 195.2-16.72 195-15.23L195-15.23Q194.83-13.43 194.72-12.27 194.61-11.11 194.57-10.36 194.52-9.62 194.48-9.17 194.44-8.72 194.42-8.33L194.42-8.33Q194.42-8.23 194.38-7.79 194.35-7.35 194.27-6.76 194.2-6.18 194.14-5.49 194.08-4.81 194-4.22 193.93-3.64 193.89-3.2 193.86-2.76 193.86-2.66L193.86-2.66Q193.86-2.47 193.87-2.33 193.88-2.2 193.88-2.08L193.88-2.08Q193.88-1.88 193.7-1.75 193.52-1.61 192.88-1.44L192.88-1.44 186.41 0.88Q186.14 0.98 185.7 1.12 185.26 1.27 184.85 1.27L184.85 1.27Q184.51 1.27 184.25 1.1 183.99 0.93 183.99 0.51L183.99 0.51 186.09-23.68Q186.17-24.49 186.28-24.79 186.39-25.1 186.83-25.2L186.83-25.2Q189.05-25.63 191.42-26.09 193.78-26.54 196.01-27.25L196.01-27.25Q196.2-27.25 196.24-27.19 196.27-27.12 196.27-27L196.27-27Q196.27-26.95 196.26-26.86 196.25-26.76 196.19-26.42 196.13-26.07 196.02-25.38 195.91-24.68 195.71-23.44L195.71-23.44Q196.84-24.32 198.19-25.05 199.55-25.78 200.91-26.31 202.28-26.83 203.55-27.14 204.82-27.44 205.77-27.44L205.77-27.44ZM224.05-18.82L219.51-18.82Q219.17-16.26 218.87-13.71 218.56-11.16 218.49-8.94L218.49-8.94Q218.49-7.98 218.63-7.35 218.78-6.71 219.06-6.35 219.34-5.98 219.73-5.82 220.12-5.66 220.61-5.66L220.61-5.66Q221.39-5.66 222.32-5.9 223.25-6.13 224.18-6.49L224.18-6.49Q224.47-6.62 224.68-6.68 224.88-6.74 225.03-6.74L225.03-6.74Q225.28-6.74 225.36-6.52 225.45-6.3 225.53-5.75 225.62-5.2 225.79-4.27 225.96-3.34 226.35-1.93L226.35-1.93Q226.37-1.81 226.39-1.72 226.4-1.64 226.4-1.56L226.4-1.56Q226.4-1.22 226.14-1.07 225.89-0.93 225.3-0.73L225.3-0.73Q224.3-0.39 223.19-0.04 222.08 0.32 220.99 0.61 219.9 0.9 218.9 1.09 217.9 1.27 217.15 1.27L217.15 1.27Q213.07 1.27 211.2-0.76 209.33-2.78 209.33-6.93L209.33-6.93Q209.33-7.64 209.38-8.39 209.43-9.13 209.5-9.94L209.5-9.94Q209.75-12.38 209.93-14.56 210.11-16.75 210.31-18.75L210.31-18.75 207.75-18.75Q206.43-18.75 205.84-18.86 205.26-18.97 205.26-19.31L205.26-19.31Q205.26-19.41 205.5-19.84 205.74-20.26 206.12-20.86 206.5-21.46 206.94-22.14 207.38-22.83 207.78-23.43 208.19-24.02 208.48-24.46 208.77-24.9 208.84-25L208.84-25 210.58-25Q210.8-26.86 210.93-28.11 211.07-29.37 211.15-30.2 211.24-31.03 211.31-31.48 211.38-31.93 211.47-32.15 211.55-32.37 211.69-32.43 211.82-32.5 212.04-32.54L212.04-32.54Q213.14-32.76 214.17-32.95 215.19-33.13 216.22-33.33 217.24-33.52 218.31-33.78 219.37-34.03 220.51-34.38L220.51-34.38Q220.59-34.38 220.61-34.39 220.64-34.4 220.71-34.4L220.71-34.4Q221-34.4 221-34.2L221-34.2 221-34.16Q220.88-32.81 220.62-30.42 220.37-28.03 220.05-25L220.05-25 226.59-25Q226.79-25 226.97-24.87 227.16-24.73 227.16-24.41L227.16-24.41Q227.16-24.29 226.86-23.54 226.57-22.78 226.03-21.56L226.03-21.56 225.15-19.58Q224.98-19.21 224.8-19.04 224.62-18.87 224.05-18.82L224.05-18.82Z" opacity="1" transform="matrix(1,0,0,1,0,0)" fill="#202046" class="wordmark-text-0" data-fill-palette-color="primary" id="text-0"></path></svg></g></svg></g><g transform="matrix(1,0,0,1,163.310208,88.5009229214167)"><svg viewBox="0 0 232.209792 36.93601783136455" height="36.93601783136455" width="232.209792"><g transform="matrix(1,0,0,1,0,0)"><svg width="232.209792" viewBox="2.6 -38.25 245.48000000000002 39.050000000000004" height="36.93601783136455" data-palette-color="#3886ce"><path d="M12.45 0.8L12.45 0.8Q9.95 0.8 8 0.13 6.05-0.55 4.8-1.4L4.8-1.4 5 0.35 2.9 0.35 2.6-8.25 4.15-8.25Q4.25-6.2 5.3-4.58 6.35-2.95 8-2.05 9.65-1.15 11.55-1.15L11.55-1.15Q12.85-1.15 14.1-1.58 15.35-2 16.2-2.88 17.05-3.75 17.05-5.1L17.05-5.1Q17.05-6.5 16.23-7.43 15.4-8.35 14.05-9.05 12.7-9.75 11.15-10.35L11.15-10.35Q9.65-10.95 8.15-11.6 6.65-12.25 5.38-13.15 4.1-14.05 3.35-15.35 2.6-16.65 2.6-18.55L2.6-18.55Q2.6-19.6 3-20.85 3.4-22.1 4.35-23.23 5.3-24.35 6.95-25.08 8.6-25.8 11.15-25.8L11.15-25.8Q12.5-25.8 14.15-25.35 15.8-24.9 17.35-23.65L17.35-23.65 17.25-25.55 19.35-25.55 19.35-16.8 17.75-16.8Q17.65-18.55 16.95-20.18 16.25-21.8 14.9-22.88 13.55-23.95 11.4-23.95L11.4-23.95Q9.1-23.95 7.8-22.8 6.5-21.65 6.5-20.15L6.5-20.15Q6.5-18.6 7.48-17.57 8.45-16.55 10-15.8 11.55-15.05 13.3-14.35L13.3-14.35Q15.2-13.55 17-12.6 18.8-11.65 19.95-10.23 21.1-8.8 21.1-6.55L21.1-6.55Q21.1-4.05 19.83-2.4 18.55-0.75 16.57 0.03 14.6 0.8 12.45 0.8ZM25.35 0L25.35-1.5Q26.9-1.5 27.5-2.27 28.1-3.05 28.2-4.42 28.3-5.8 28.3-7.6L28.3-7.6 28.3-19Q28.3-19.8 28.35-20.53 28.4-21.25 28.5-22.25L28.5-22.25Q27.6-22.2 26.72-22.15 25.85-22.1 24.95-22.05L24.95-22.05 24.95-24.15Q27.15-24.15 28.35-24.35 29.55-24.55 30.17-24.85 30.8-25.15 31.15-25.5L31.15-25.5 32.6-25.5 32.6-5.3Q32.6-4.3 32.57-3.53 32.55-2.75 32.4-1.9L32.4-1.9Q33.2-1.95 33.97-1.98 34.75-2 35.55-2.05L35.55-2.05 35.55 0 25.35 0ZM30.2-30.45L30.2-30.45Q29.15-30.45 28.35-31.3 27.55-32.15 27.55-33.4L27.55-33.4Q27.55-34.65 28.37-35.52 29.2-36.4 30.25-36.4L30.25-36.4Q31.4-36.4 32.17-35.52 32.95-34.65 32.95-33.4L32.95-33.4Q32.95-32.15 32.12-31.3 31.3-30.45 30.2-30.45ZM49.6 0L39.4 0 39.4-1.5Q40.95-1.5 41.55-2.27 42.15-3.05 42.25-4.42 42.35-5.8 42.35-7.6L42.35-7.6 42.4-19Q42.4-19.8 42.42-20.6 42.45-21.4 42.6-22.25L42.6-22.25Q41.7-22.2 40.82-22.15 39.95-22.1 39.05-22.05L39.05-22.05 39.05-24.15Q41.25-24.15 42.37-24.35 43.5-24.55 44.05-24.85 44.6-25.15 44.95-25.5L44.95-25.5 46.4-25.5Q46.45-25.15 46.47-24.7 46.5-24.25 46.55-23.7 46.6-23.15 46.6-22.45L46.6-22.45Q47.7-23.4 49.02-24.15 50.35-24.9 51.82-25.35 53.3-25.8 54.75-25.8L54.75-25.8Q59.1-25.8 61.1-23.08 63.1-20.35 63.1-14.6L63.1-14.6 63.1-5.3Q63.1-4.3 63.07-3.53 63.05-2.75 62.9-1.9L62.9-1.9Q63.7-1.95 64.47-1.98 65.25-2 66.05-2.05L66.05-2.05 66.05 0 55.85 0 55.85-1.5Q57.4-1.5 58-2.27 58.6-3.05 58.7-4.42 58.8-5.8 58.8-7.6L58.8-7.6 58.8-14.6Q58.75-18.9 57.37-21.1 56-23.3 53.05-23.25L53.05-23.25Q51.25-23.2 49.52-22.3 47.8-21.4 46.65-20L46.65-20Q46.7-19.6 46.7-19.1 46.7-18.6 46.7-18.05L46.7-18.05 46.65-5.3Q46.65-4.3 46.62-3.53 46.6-2.75 46.45-1.9L46.45-1.9Q47.25-1.95 48.02-1.98 48.8-2 49.6-2.05L49.6-2.05 49.6 0ZM81.94 0.8L81.94 0.8Q78.59 0.8 75.77-0.73 72.94-2.25 71.27-5.13 69.59-8 69.59-12.05L69.59-12.05Q69.59-14.65 70.54-17.1 71.49-19.55 73.22-21.53 74.94-23.5 77.34-24.65 79.74-25.8 82.64-25.8L82.64-25.8Q85.44-25.8 87.52-24.95 89.59-24.1 90.74-22.7 91.89-21.3 91.89-19.65L91.89-19.65Q91.89-18.55 91.29-17.78 90.69-17 89.54-17L89.54-17Q88.29-16.95 87.77-17.78 87.24-18.6 87.24-19.25L87.24-19.25Q87.24-19.75 87.39-20.28 87.54-20.8 87.99-21.25L87.99-21.25Q87.59-22.45 86.59-23.03 85.59-23.6 84.52-23.78 83.44-23.95 82.74-23.95L82.74-23.95Q79.34-23.95 77.02-21.23 74.69-18.5 74.69-13.3L74.69-13.3Q74.69-9.95 75.77-7.35 76.84-4.75 78.79-3.28 80.74-1.8 83.29-1.8L83.29-1.8Q85.64-1.8 87.79-3.05 89.94-4.3 91.14-6.1L91.14-6.1 92.44-5.1Q91.14-3 89.32-1.7 87.49-0.4 85.57 0.2 83.64 0.8 81.94 0.8ZM108.19 0.8L108.19 0.8Q104.74 0.8 101.97-0.83 99.19-2.45 97.59-5.43 95.99-8.4 95.99-12.45L95.99-12.45Q95.99-15.95 97.57-19 99.14-22.05 101.99-23.93 104.84-25.8 108.59-25.8L108.59-25.8Q110.69-25.8 112.52-25.13 114.34-24.45 115.74-23.08 117.14-21.7 117.94-19.63 118.74-17.55 118.74-14.75L118.74-14.75 101.14-14.45Q101.14-10.65 101.97-7.78 102.79-4.9 104.64-3.33 106.49-1.75 109.39-1.75L109.39-1.75Q110.94-1.75 112.57-2.3 114.19-2.85 115.59-3.8 116.99-4.75 117.84-5.9L117.84-5.9 119.04-4.9Q117.69-2.8 115.79-1.55 113.89-0.3 111.89 0.25 109.89 0.8 108.19 0.8ZM101.29-16.55L101.29-16.55 114.04-16.55Q114.04-18.35 113.52-20.03 112.99-21.7 111.79-22.78 110.59-23.85 108.64-23.85L108.64-23.85Q105.74-23.85 103.82-22.13 101.89-20.4 101.29-16.55ZM158.09 0L136.44 0Q136.44-2.65 137.26-4.7 138.09-6.75 139.49-8.47 140.89-10.2 142.66-11.83 144.44-13.45 146.29-15.25L146.29-15.25Q149.54-18.35 150.99-21 152.44-23.65 152.44-26.1L152.44-26.1Q152.44-28 151.91-29.78 151.39-31.55 150.04-32.7 148.69-33.85 146.29-33.85L146.29-33.85Q144.24-33.85 142.64-32.83 141.04-31.8 140.49-30.3L140.49-30.3Q140.99-29.8 141.19-29.23 141.39-28.65 141.39-28.1L141.39-28.1Q141.39-27.65 141.16-27.1 140.94-26.55 140.39-26.15 139.84-25.75 138.94-25.75L138.94-25.75Q137.84-25.8 137.24-26.6 136.64-27.4 136.64-28.5L136.64-28.5Q136.64-29.55 137.29-30.83 137.94-32.1 139.26-33.23 140.59-34.35 142.54-35.08 144.49-35.8 147.09-35.8L147.09-35.8Q149.09-35.8 150.96-35.33 152.84-34.85 154.34-33.8 155.84-32.75 156.71-31.03 157.59-29.3 157.59-26.75L157.59-26.75Q157.59-25.5 157.06-24.05 156.54-22.6 155.36-20.93 154.19-19.25 152.34-17.38 150.49-15.5 147.79-13.3L147.79-13.3Q144.39-10.5 142.21-8.03 140.04-5.55 139.69-3.8L139.69-3.8 148.54-3.55Q150.99-3.5 152.86-3.55 154.74-3.6 155.81-4.33 156.89-5.05 156.89-7L156.89-7 158.39-7 158.09 0ZM176.53 0.8L176.53 0.8Q172.73 0.8 170.23-0.83 167.73-2.45 166.33-5.13 164.93-7.8 164.36-11 163.78-14.2 163.78-17.35L163.78-17.35Q163.78-20.5 164.51-23.75 165.23-27 166.78-29.73 168.33-32.45 170.78-34.13 173.23-35.8 176.73-35.8L176.73-35.8Q180.38-35.8 182.81-34.15 185.23-32.5 186.66-29.83 188.08-27.15 188.68-23.95 189.28-20.75 189.28-17.6L189.28-17.6Q189.28-14.5 188.58-11.25 187.88-8 186.38-5.28 184.88-2.55 182.46-0.88 180.03 0.8 176.53 0.8ZM176.83-1.15L176.83-1.15Q178.98-1.15 180.38-2.5 181.78-3.85 182.61-6.1 183.43-8.35 183.78-11.08 184.13-13.8 184.13-16.55L184.13-16.55Q184.13-19.6 183.78-22.65 183.43-25.7 182.58-28.25 181.73-30.8 180.28-32.35 178.83-33.9 176.63-33.9L176.63-33.9Q174.48-33.9 173.01-32.55 171.53-31.2 170.63-28.95 169.73-26.7 169.33-23.95 168.93-21.2 168.93-18.4L168.93-18.4Q168.93-16.3 169.13-13.95 169.33-11.6 169.86-9.33 170.38-7.05 171.28-5.2 172.18-3.35 173.53-2.25 174.88-1.15 176.83-1.15ZM207.58 0.8L207.58 0.8Q203.78 0.8 201.28-0.83 198.78-2.45 197.38-5.13 195.98-7.8 195.41-11 194.83-14.2 194.83-17.35L194.83-17.35Q194.83-20.5 195.56-23.75 196.28-27 197.83-29.73 199.38-32.45 201.83-34.13 204.28-35.8 207.78-35.8L207.78-35.8Q211.43-35.8 213.86-34.15 216.28-32.5 217.71-29.83 219.13-27.15 219.73-23.95 220.33-20.75 220.33-17.6L220.33-17.6Q220.33-14.5 219.63-11.25 218.93-8 217.43-5.28 215.93-2.55 213.51-0.88 211.08 0.8 207.58 0.8ZM207.88-1.15L207.88-1.15Q210.03-1.15 211.43-2.5 212.83-3.85 213.66-6.1 214.48-8.35 214.83-11.08 215.18-13.8 215.18-16.55L215.18-16.55Q215.18-19.6 214.83-22.65 214.48-25.7 213.63-28.25 212.78-30.8 211.33-32.35 209.88-33.9 207.68-33.9L207.68-33.9Q205.53-33.9 204.06-32.55 202.58-31.2 201.68-28.95 200.78-26.7 200.38-23.95 199.98-21.2 199.98-18.4L199.98-18.4Q199.98-16.3 200.18-13.95 200.38-11.6 200.91-9.33 201.43-7.05 202.33-5.2 203.23-3.35 204.58-2.25 205.93-1.15 207.88-1.15ZM235.78 0.8L235.78 0.8Q232.58 0.8 230.33-0.28 228.08-1.35 226.88-2.95 225.68-4.55 225.68-6L225.68-6Q225.68-7.15 226.28-7.93 226.88-8.7 227.98-8.75L227.98-8.75Q228.88-8.8 229.4-8.43 229.93-8.05 230.13-7.5 230.33-6.95 230.33-6.5L230.33-6.5Q230.33-6 230.18-5.5 230.03-5 229.78-4.55L229.78-4.55Q229.98-3.35 231.03-2.58 232.08-1.8 233.45-1.45 234.83-1.1 235.98-1.15L235.98-1.15Q238.43-1.25 239.93-2.48 241.43-3.7 242.15-5.6 242.88-7.5 242.88-9.6L242.88-9.6Q242.88-11 242.65-12.7 242.43-14.4 241.65-15.93 240.88-17.45 239.33-18.45 237.78-19.45 235.13-19.45L235.13-19.45Q234.28-19.45 233.05-19.25 231.83-19.05 230.6-18.65 229.38-18.25 228.53-17.7L228.53-17.7 227.13-19 227.03-35 239.98-35Q242.83-35 243.9-35.77 244.98-36.55 244.98-38.25L244.98-38.25 246.33-38.25 246.03-31.65 229.33-31.3 229.33-20.3Q230.53-20.8 232.45-21.25 234.38-21.7 236.58-21.7L236.58-21.7Q239.68-21.7 241.85-20.73 244.03-19.75 245.4-18.13 246.78-16.5 247.43-14.53 248.08-12.55 248.08-10.5L248.08-10.5Q248.08-6.8 246.35-4.28 244.63-1.75 241.83-0.48 239.03 0.8 235.78 0.8Z" opacity="1" transform="matrix(1,0,0,1,0,0)" fill="#3886ce" class="slogan-text-1" data-fill-palette-color="secondary" id="text-1"></path></svg></g></svg></g></svg></g></svg></g><g transform="matrix(1,0,0,1,435.7820812322207,14.654178261227017)"><svg viewBox="0 0 244.43135999999998 121.21597238088347" height="121.21597238088347" width="244.43135999999998"><g><svg xmlns:x="http://ns.adobe.com/Extensibility/1.0/" xmlns:i="http://ns.adobe.com/AdobeIllustrator/10.0/" xmlns:graph="http://ns.adobe.com/Graphs/1.0/" xmlns="http://www.w3.org/2000/svg" xmlns:xlink="http://www.w3.org/1999/xlink" xmlns:a="http://ns.adobe.com/AdobeSVGViewerExtensions/3.0/" version="1.0" x="0" y="0" viewBox="0.25627715513402366 20.812430277266596 99.73006867094655 49.457145145209964" enable-background="new 0 0 100 100" xml:space="preserve" height="121.21597238088347" width="244.43135999999998" class="icon-icon-0" data-fill-palette-color="accent" id="icon-0"><g fill="#fe633d" data-fill-palette-color="accent"><path d="M71.195 52.306c-2.174-0.433-4.279-0.899-6.307-1.396L54.771 62.654c2.594-0.043 5.166-0.121 7.705-0.229L71.195 52.306 71.195 52.306zM51.107 46.592c-1.946-0.778-3.752-1.593-5.406-2.442L30.684 61.576c2.289 0.266 4.604 0.485 6.945 0.658L51.107 46.592 51.107 46.592zM60.814 49.84c-2.07-0.582-4.051-1.197-5.922-1.844L42.379 62.518c2.432 0.111 4.887 0.169 7.362 0.173L60.814 49.84 60.814 49.84zM98.689 59.938l0.109 0.255c0.021 0.045 0.039 0.089 0.057 0.134 1.043 2.632-2.801 3.865-4.652 4.735-9.861 4.64-30.873 5.229-41.375 5.207-2.983-0.006-6.354-0.128-9.262-0.854-0.154-0.039-0.772-0.163-0.767-0.311-0.032-1.098-0.713-2.304-1.838-2.58-2.278-0.559-4.91 0.878-6.846 1.946-2.193 1.208-6.259 1.52-8.758 1.52-6.913 0-13.896-0.82-20.714-1.925-1.045-0.169-3.218-0.608-3.96-1.441-0.791-0.886-0.354-5.193 0.274-6.254C1.5 59.457 2.2 58.519 2.609 57.532c-0.349-1.695-0.725-3.438-0.906-5.16C1.45 49.977 6.987 37.176 8.005 34.547 6 32.988 8.093 32.532 8.562 32.341c2.146-0.872 5.397-1.542 7.277 0.209 2.99 2.787 4.427 6.269 9.286 6.168 1.66-0.035 6.124-0.311 7.688-1.048-1.036-0.932-2.632-2.668-1.613-4.117 0.784-1.114 10.769-13.466 13.659-12.707 2.34 0.615 7.052 12.259 7.907 13.173 0.328 0.075 16.486 14.446 24.688 14.967 0.346 0.021 4.4 0.155 5.021 0.173 3.844 0.117 8.311 0.433 12.02 1.441 1.111 0.301 2.408 0.609 3.42 1.179C100.986 53.506 100.109 57.42 98.689 59.938L98.689 59.938z" fill="#fe633d" data-fill-palette-color="accent"></path></g></svg></g></svg></g></svg></g><defs></defs></svg><rect width="395.52" height="87.52456061438373" fill="none" stroke="none" visibility="hidden"></rect></g></svg></g></svg>